<svg width="19" height="17" viewBox="0 0 19 17" fill="none" xmlns="http://www.w3.org/2000/svg">
<path d="M14.1091 0C15.3756 0 16.5939 0.500556 17.4902 1.39872C18.3874 2.295 18.8889 3.50389 18.8889 4.76944V12.2306C18.8889 14.8656 16.745 17 14.1091 17H4.77889C2.14294 17 0 14.8656 0 12.2306V4.76944C0 2.13444 2.1335 0 4.77889 0H14.1091ZM15.1772 4.91111C14.9789 4.90072 14.79 4.96778 14.6474 5.1L10.3889 8.5C9.84111 8.95428 9.05628 8.95428 8.5 8.5L4.25 5.1C3.95628 4.88278 3.55017 4.91111 3.30556 5.16611C3.05056 5.42111 3.02222 5.82722 3.2385 6.11056L3.36222 6.23333L7.65944 9.58611C8.18833 10.0017 8.82961 10.2283 9.50111 10.2283C10.1707 10.2283 10.8233 10.0017 11.3513 9.58611L15.6117 6.17667L15.6872 6.10111C15.9129 5.82722 15.9129 5.43056 15.6768 5.15667C15.5456 5.01594 15.3652 4.93 15.1772 4.91111Z" fill="white"/>
</svg>
