<svg width="28" height="28" viewBox="0 0 28 28" fill="none" xmlns="http://www.w3.org/2000/svg">
<path d="M14 0C10.1967 0 9.72183 0.0175 8.2285 0.084C6.7375 0.154 5.7225 0.3885 4.83 0.735C3.9095 1.092 3.12783 1.5715 2.34967 2.34967C1.5715 3.12783 1.09083 3.90833 0.735 4.83C0.3885 5.7225 0.152833 6.7375 0.084 8.2285C0.014 9.72183 0 10.1967 0 14C0 17.8033 0.0175 18.2782 0.084 19.7715C0.154 21.2613 0.3885 22.2775 0.735 23.17C1.08651 24.1043 1.63753 24.9508 2.34967 25.6503C3.04882 26.363 3.89538 26.9141 4.83 27.265C5.72367 27.6103 6.73867 27.8472 8.2285 27.916C9.72183 27.986 10.1967 28 14 28C17.8033 28 18.2782 27.9825 19.7715 27.916C21.2613 27.846 22.2775 27.6103 23.17 27.265C24.1041 26.9131 24.9505 26.3621 25.6503 25.6503C26.3632 24.9514 26.9143 24.1048 27.265 23.17C27.6103 22.2775 27.8472 21.2613 27.916 19.7715C27.986 18.2782 28 17.8033 28 14C28 10.1967 27.9825 9.72183 27.916 8.2285C27.846 6.73867 27.6103 5.72133 27.265 4.83C26.9133 3.89576 26.3623 3.04935 25.6503 2.34967C24.9517 1.63641 24.105 1.08522 23.17 0.735C22.2775 0.3885 21.2613 0.152833 19.7715 0.084C18.2782 0.014 17.8033 0 14 0ZM14 2.52C17.7368 2.52 18.1825 2.53867 19.6583 2.60283C21.0233 2.667 21.7642 2.89333 22.2565 3.087C22.9122 3.34017 23.3765 3.6435 23.8688 4.13233C24.3577 4.62233 24.661 5.08783 24.9142 5.7435C25.1055 6.23583 25.3342 6.97667 25.396 8.34167C25.4625 9.81867 25.4777 10.262 25.4777 14C25.4777 17.738 25.4602 18.1825 25.3913 19.6583C25.3202 21.0233 25.0927 21.7642 24.9002 22.2565C24.6724 22.864 24.3144 23.4144 23.8513 23.8688C23.3988 24.3323 22.8489 24.6894 22.2413 24.9142C21.7513 25.1055 20.9988 25.3342 19.6338 25.396C18.1475 25.4625 17.71 25.4777 13.965 25.4777C10.2188 25.4777 9.78133 25.4602 8.29617 25.3913C6.93 25.3202 6.1775 25.0927 5.6875 24.9002C5.07955 24.6752 4.52979 24.3168 4.07867 23.8513C3.61035 23.4019 3.25117 22.8511 3.02867 22.2413C2.83617 21.7513 2.60983 20.9988 2.53867 19.6338C2.48617 18.1638 2.4675 17.71 2.4675 13.9825C2.4675 10.2538 2.48617 9.79883 2.53867 8.31133C2.60983 6.94633 2.83617 6.195 3.02867 5.705C3.27367 5.04 3.5875 4.585 4.07867 4.09383C4.5675 3.605 5.02367 3.29 5.6875 3.04617C6.1775 2.8525 6.91367 2.625 8.27867 2.555C9.76617 2.5025 10.2037 2.485 13.9475 2.485L14 2.52ZM14 6.811C13.0559 6.811 12.1211 6.99695 11.2489 7.35823C10.3767 7.71951 9.58417 8.24905 8.91661 8.91661C8.24905 9.58417 7.71951 10.3767 7.35823 11.2489C6.99695 12.1211 6.811 13.0559 6.811 14C6.811 14.9441 6.99695 15.8789 7.35823 16.7511C7.71951 17.6233 8.24905 18.4158 8.91661 19.0834C9.58417 19.7509 10.3767 20.2805 11.2489 20.6418C12.1211 21.003 13.0559 21.189 14 21.189C15.9066 21.189 17.7352 20.4316 19.0834 19.0834C20.4316 17.7352 21.189 15.9066 21.189 14C21.189 12.0934 20.4316 10.2648 19.0834 8.91661C17.7352 7.56841 15.9066 6.811 14 6.811ZM14 18.6667C11.4217 18.6667 9.33333 16.5783 9.33333 14C9.33333 11.4217 11.4217 9.33333 14 9.33333C16.5783 9.33333 18.6667 11.4217 18.6667 14C18.6667 16.5783 16.5783 18.6667 14 18.6667ZM23.1537 6.5275C23.1375 6.96223 22.9534 7.37375 22.6401 7.67558C22.3268 7.97741 21.9087 8.14605 21.4737 8.14605C21.0386 8.14605 20.6205 7.97741 20.3073 7.67558C19.994 7.37375 19.8099 6.96223 19.7937 6.5275C19.7937 6.08194 19.9707 5.65462 20.2857 5.33956C20.6008 5.0245 21.0281 4.8475 21.4737 4.8475C21.9192 4.8475 22.3465 5.0245 22.6616 5.33956C22.9767 5.65462 23.1537 6.08194 23.1537 6.5275Z" fill="white" fill-opacity="0.94"/>
</svg>
