<svg width="32" height="32" viewBox="0 0 32 32" fill="none" xmlns="http://www.w3.org/2000/svg">
<path d="M22.0003 28.0001H24.8921C26.5263 28.0001 27.7762 26.5433 27.5277 24.9279L25.6815 12.9279C25.4814 11.627 24.3621 10.6667 23.0459 10.6667H8.9548C7.63861 10.6667 6.51928 11.627 6.31913 12.9279L4.47299 24.9279C4.22447 26.5433 5.47428 28.0001 7.10864 28.0001H10.0003" stroke="black" stroke-width="1.5" stroke-linecap="round" stroke-linejoin="round"/>
<path d="M16 16V25.3333M16 25.3333L20 21.3333M16 25.3333L12 21.3333" stroke="black" stroke-width="1.5" stroke-linecap="round" stroke-linejoin="round"/>
<path d="M18.6663 6.66667C18.6663 5.19391 17.4725 4 15.9997 4C14.5269 4 13.333 5.19391 13.333 6.66667" stroke="black" stroke-width="1.5" stroke-linecap="round" stroke-linejoin="round"/>
</svg>
