<svg width="28" height="28" viewBox="0 0 28 28" fill="none" xmlns="http://www.w3.org/2000/svg">
<path fill-rule="evenodd" clip-rule="evenodd" d="M0 14.0782C0 21.0391 5.05555 26.8268 11.6667 28V17.8888H8.16667V14H11.6667V10.8889C11.6667 7.38887 13.9222 5.44444 17.1112 5.44444C18.1222 5.44444 19.2111 5.59999 20.2222 5.75554V9.33332H18.4333C16.7222 9.33332 16.3333 10.1889 16.3333 11.2778V14H20.0667L19.4445 17.8888H16.3333V28C22.9445 26.8268 28 21.0391 28 14.0782C28 6.3352 21.7 0 14 0C6.3 0 0 6.3352 0 14.0782H0Z" fill="white"/>
</svg>
